<mxfile host="65bd71144e">
    <diagram id="K_p7Nm3_NWLc3gTkt9w1" name="Page-1">
        <mxGraphModel dx="662" dy="310" grid="1" gridSize="10" guides="1" tooltips="1" connect="1" arrows="1" fold="1" page="1" pageScale="1" pageWidth="827" pageHeight="1169" math="0" shadow="0">
            <root>
                <mxCell id="0"/>
                <mxCell id="1" parent="0"/>
                <mxCell id="52" value="&lt;br&gt;&lt;br&gt;&lt;br&gt;&lt;br&gt;&lt;br&gt;&lt;br&gt;&lt;br&gt;&lt;br&gt;&lt;br&gt;&lt;br&gt;&lt;br&gt;&lt;br&gt;&lt;br&gt;&lt;br&gt;&lt;br&gt;&lt;br&gt;&lt;br&gt;&lt;br&gt;&lt;p class=&quot;MsoNormal&quot;&gt;&lt;/p&gt;&lt;br&gt;&lt;br&gt;&lt;br&gt;&lt;br&gt;&lt;br&gt;" style="rounded=0;whiteSpace=wrap;html=1;" parent="1" vertex="1">
                    <mxGeometry x="170" y="20" width="340" height="480" as="geometry"/>
                </mxCell>
                <mxCell id="53" value="admin&lt;br&gt;" style="shape=umlActor;verticalLabelPosition=bottom;verticalAlign=top;html=1;outlineConnect=0;" parent="1" vertex="1">
                    <mxGeometry x="550" y="220" width="30" height="60" as="geometry"/>
                </mxCell>
                <mxCell id="54" value="user" style="shape=umlActor;verticalLabelPosition=bottom;verticalAlign=top;html=1;outlineConnect=0;" parent="1" vertex="1">
                    <mxGeometry x="80" y="70" width="30" height="60" as="geometry"/>
                </mxCell>
                <mxCell id="56" value="authentification" style="ellipse;whiteSpace=wrap;html=1;" parent="1" vertex="1">
                    <mxGeometry x="230" y="30" width="105" height="50" as="geometry"/>
                </mxCell>
                <mxCell id="57" value="&lt;span style=&quot;font-size: 11.0pt ; line-height: 115% ; font-family: &amp;#34;calibri&amp;#34; , &amp;#34;sans-serif&amp;#34;&quot;&gt;add/remove product to card&lt;br&gt;&amp;nbsp;&amp;nbsp; &amp;nbsp; &amp;nbsp; &amp;nbsp; &amp;nbsp; &amp;nbsp; &amp;nbsp; &amp;nbsp;&amp;nbsp;&lt;/span&gt;" style="ellipse;whiteSpace=wrap;html=1;" parent="1" vertex="1">
                    <mxGeometry x="223.75" y="210" width="117.5" height="50" as="geometry"/>
                </mxCell>
                <mxCell id="58" value="&lt;p class=&quot;MsoNormal&quot;&gt;buy product&lt;/p&gt;" style="ellipse;whiteSpace=wrap;html=1;" parent="1" vertex="1">
                    <mxGeometry x="221.25" y="270" width="120" height="40" as="geometry"/>
                </mxCell>
                <mxCell id="59" value="" style="endArrow=none;html=1;entryX=1;entryY=0.3333333333333333;entryDx=0;entryDy=0;entryPerimeter=0;exitX=0;exitY=0.5;exitDx=0;exitDy=0;" parent="1" source="58" target="54" edge="1">
                    <mxGeometry width="50" height="50" relative="1" as="geometry">
                        <mxPoint x="260" y="180" as="sourcePoint"/>
                        <mxPoint x="160" y="150" as="targetPoint"/>
                    </mxGeometry>
                </mxCell>
                <mxCell id="61" value="" style="endArrow=none;html=1;entryX=0;entryY=0.5;entryDx=0;entryDy=0;exitX=1;exitY=0.3333333333333333;exitDx=0;exitDy=0;exitPerimeter=0;" parent="1" source="54" target="56" edge="1">
                    <mxGeometry width="50" height="50" relative="1" as="geometry">
                        <mxPoint x="260" y="180" as="sourcePoint"/>
                        <mxPoint x="310" y="130" as="targetPoint"/>
                    </mxGeometry>
                </mxCell>
                <mxCell id="63" value="" style="endArrow=none;html=1;entryX=0;entryY=0.5;entryDx=0;entryDy=0;" parent="1" target="57" edge="1">
                    <mxGeometry width="50" height="50" relative="1" as="geometry">
                        <mxPoint x="110" y="90" as="sourcePoint"/>
                        <mxPoint x="310" y="130" as="targetPoint"/>
                    </mxGeometry>
                </mxCell>
                <mxCell id="66" value="&amp;nbsp;verifier username and password" style="ellipse;whiteSpace=wrap;html=1;" parent="1" vertex="1">
                    <mxGeometry x="390" y="30" width="110" height="50" as="geometry"/>
                </mxCell>
                <mxCell id="68" value="" style="endArrow=block;dashed=1;endFill=0;endSize=12;html=1;entryX=0;entryY=0.5;entryDx=0;entryDy=0;exitX=1;exitY=0.5;exitDx=0;exitDy=0;" parent="1" source="56" target="66" edge="1">
                    <mxGeometry width="160" relative="1" as="geometry">
                        <mxPoint x="350" y="90" as="sourcePoint"/>
                        <mxPoint x="410" y="210" as="targetPoint"/>
                    </mxGeometry>
                </mxCell>
                <mxCell id="69" value="" style="endArrow=block;dashed=1;endFill=0;endSize=12;html=1;entryX=1;entryY=0.5;entryDx=0;entryDy=0;exitX=0;exitY=0.5;exitDx=0;exitDy=0;" parent="1" source="67" target="56" edge="1">
                    <mxGeometry width="160" relative="1" as="geometry">
                        <mxPoint x="250" y="210" as="sourcePoint"/>
                        <mxPoint x="410" y="210" as="targetPoint"/>
                    </mxGeometry>
                </mxCell>
                <mxCell id="67" value="show error msg" style="ellipse;whiteSpace=wrap;html=1;" parent="1" vertex="1">
                    <mxGeometry x="410" y="100" width="100" height="50" as="geometry"/>
                </mxCell>
                <mxCell id="72" value="" style="endArrow=none;html=1;exitX=0;exitY=0.3333333333333333;exitDx=0;exitDy=0;exitPerimeter=0;" parent="1" source="53" target="56" edge="1">
                    <mxGeometry width="50" height="50" relative="1" as="geometry">
                        <mxPoint x="390" y="180" as="sourcePoint"/>
                        <mxPoint x="440" y="130" as="targetPoint"/>
                    </mxGeometry>
                </mxCell>
                <mxCell id="73" value="&lt;span style=&quot;font-size: 11.0pt ; line-height: 115% ; font-family: &amp;#34;calibri&amp;#34; , &amp;#34;sans-serif&amp;#34;&quot;&gt;conctact admin&lt;/span&gt;" style="ellipse;whiteSpace=wrap;html=1;" parent="1" vertex="1">
                    <mxGeometry x="223.75" y="90" width="117.5" height="50" as="geometry"/>
                </mxCell>
                <mxCell id="74" value="&lt;font face=&quot;calibri, sans-serif&quot;&gt;&lt;span style=&quot;font-size: 14.6667px&quot;&gt;search products&lt;/span&gt;&lt;/font&gt;" style="ellipse;whiteSpace=wrap;html=1;" parent="1" vertex="1">
                    <mxGeometry x="223.75" y="150" width="117.5" height="50" as="geometry"/>
                </mxCell>
                <mxCell id="75" value="" style="endArrow=none;html=1;entryX=0;entryY=0.5;entryDx=0;entryDy=0;" parent="1" target="74" edge="1">
                    <mxGeometry width="50" height="50" relative="1" as="geometry">
                        <mxPoint x="110" y="90" as="sourcePoint"/>
                        <mxPoint x="330" y="330" as="targetPoint"/>
                    </mxGeometry>
                </mxCell>
                <mxCell id="76" value="" style="endArrow=none;html=1;entryX=0;entryY=0.5;entryDx=0;entryDy=0;" parent="1" target="73" edge="1">
                    <mxGeometry width="50" height="50" relative="1" as="geometry">
                        <mxPoint x="110" y="90" as="sourcePoint"/>
                        <mxPoint x="330" y="330" as="targetPoint"/>
                    </mxGeometry>
                </mxCell>
                <mxCell id="79" value="&lt;p class=&quot;MsoNormal&quot;&gt;manage products&lt;/p&gt;" style="ellipse;whiteSpace=wrap;html=1;" vertex="1" parent="1">
                    <mxGeometry x="230" y="370" width="120" height="40" as="geometry"/>
                </mxCell>
                <mxCell id="80" value="&lt;p class=&quot;MsoNormal&quot;&gt;manage Orders&lt;/p&gt;" style="ellipse;whiteSpace=wrap;html=1;" vertex="1" parent="1">
                    <mxGeometry x="230" y="320" width="120" height="40" as="geometry"/>
                </mxCell>
                <mxCell id="82" value="&lt;p class=&quot;MsoNormal&quot;&gt;manage ads&lt;/p&gt;" style="ellipse;whiteSpace=wrap;html=1;" vertex="1" parent="1">
                    <mxGeometry x="230" y="430" width="120" height="40" as="geometry"/>
                </mxCell>
                <mxCell id="83" value="" style="endArrow=none;html=1;exitX=1;exitY=0.5;exitDx=0;exitDy=0;" edge="1" parent="1" source="80">
                    <mxGeometry width="50" height="50" relative="1" as="geometry">
                        <mxPoint x="320" y="320" as="sourcePoint"/>
                        <mxPoint x="550" y="240" as="targetPoint"/>
                    </mxGeometry>
                </mxCell>
                <mxCell id="85" value="" style="endArrow=none;html=1;exitX=1;exitY=0.5;exitDx=0;exitDy=0;entryX=0;entryY=0.3333333333333333;entryDx=0;entryDy=0;entryPerimeter=0;" edge="1" parent="1" source="79" target="53">
                    <mxGeometry width="50" height="50" relative="1" as="geometry">
                        <mxPoint x="320" y="490" as="sourcePoint"/>
                        <mxPoint x="370" y="440" as="targetPoint"/>
                    </mxGeometry>
                </mxCell>
                <mxCell id="86" value="" style="endArrow=none;html=1;entryX=0;entryY=0.3333333333333333;entryDx=0;entryDy=0;entryPerimeter=0;exitX=1;exitY=0.5;exitDx=0;exitDy=0;" edge="1" parent="1" source="82" target="53">
                    <mxGeometry width="50" height="50" relative="1" as="geometry">
                        <mxPoint x="320" y="390" as="sourcePoint"/>
                        <mxPoint x="370" y="340" as="targetPoint"/>
                    </mxGeometry>
                </mxCell>
            </root>
        </mxGraphModel>
    </diagram>
</mxfile>